<svg width="15" height="16" viewBox="0 0 15 16" fill="none" xmlns="http://www.w3.org/2000/svg">
<path d="M5.5 0C5.22386 0 5 0.223858 5 0.5C5 0.776142 5.22386 1 5.5 1H9.5C9.77614 1 10 0.776142 10 0.5C10 0.223858 9.77614 0 9.5 0H5.5ZM13.1563 1.92899C12.961 1.73373 12.6444 1.73373 12.4492 1.92899C12.2539 2.12426 12.2539 2.44084 12.4492 2.6361L13.8634 4.05031C14.0587 4.24558 14.3752 4.24558 14.5705 4.05031C14.7658 3.85505 14.7658 3.53847 14.5705 3.34321L13.1563 1.92899ZM7.5 4C7.22386 4 7 4.22386 7 4.5V9.5C7 9.77614 7.22386 10 7.5 10C7.77614 10 8 9.77614 8 9.5V4.5C8 4.22386 7.77614 4 7.5 4ZM7.5 16C11.366 16 14.5 12.866 14.5 9C14.5 5.13401 11.366 2 7.5 2C3.63401 2 0.5 5.13401 0.5 9C0.5 12.866 3.63401 16 7.5 16ZM7.5 15C4.18629 15 1.5 12.3137 1.5 9C1.5 5.68629 4.18629 3 7.5 3C10.8137 3 13.5 5.68629 13.5 9C13.5 12.3137 10.8137 15 7.5 15Z" fill="#13A10E"/>
</svg>
