<svg width="16" height="16" viewBox="0 0 16 16" fill="none" xmlns="http://www.w3.org/2000/svg">
    <path d="M8.48634 1.61141C8.14116 1.61141 7.86134 1.33159 7.86134 0.986416C7.86134 0.64124 8.14116 0.36142 8.48634 0.36142H14.7363C14.8068 0.36142 14.8745 0.373084 14.9377 0.394587C15.0256 0.424422 15.1082 0.474386 15.1783 0.544477C15.3031 0.669288 15.3641 0.833753 15.3613 0.997317V7.23638C15.3613 7.58155 15.0815 7.86137 14.7363 7.86137C14.3911 7.86137 14.1113 7.58155 14.1113 7.23638V2.49538L7.67838 8.92831C7.4343 9.17239 7.03858 9.17239 6.7945 8.92831C6.55043 8.68423 6.55043 8.28851 6.7945 8.04443L13.2275 1.61141H8.48634Z" fill="#036AC4" fill-opacity="0.55"/>
    <path d="M0.361389 5.36139C0.361389 3.29033 2.04031 1.61141 4.11137 1.61141H6.61135C6.95653 1.61141 7.23635 1.89123 7.23635 2.23641C7.23635 2.58158 6.95653 2.8614 6.61135 2.8614H4.11137C2.73066 2.8614 1.61138 3.98069 1.61138 5.36139V11.6114C1.61138 12.9921 2.73066 14.1113 4.11137 14.1113H10.3613C11.742 14.1113 12.8613 12.9921 12.8613 11.6114V9.73636C12.8613 9.39119 13.1411 9.11137 13.4863 9.11137C13.8315 9.11137 14.1113 9.39119 14.1113 9.73636V11.6114C14.1113 13.6824 12.4324 15.3613 10.3613 15.3613H4.11137C2.04031 15.3613 0.361389 13.6824 0.361389 11.6114V5.36139Z" fill="#036AC4" fill-opacity="0.55"/>
</svg>