<svg width="22" height="12" viewBox="0 0 22 12" fill="#000" xmlns="http://www.w3.org/2000/svg">
<path d="M7.85 0.75C8.42989 0.75 8.9 1.22011 8.9 1.8C8.9 2.33848 8.49466 2.78229 7.97245 2.84293L7.85 2.85H5.75C4.01031 2.85 2.6 4.26025 2.6 6C2.6 7.67758 3.91137 9.04888 5.56492 9.14464L5.75 9.15H7.85C8.42989 9.15 8.9 9.62008 8.9 10.2C8.9 10.7384 8.49466 11.1823 7.97245 11.243L7.85 11.25H5.75C2.85051 11.25 0.5 8.89947 0.5 6C0.5 3.17681 2.72843 0.874089 5.52227 0.754851L5.75 0.75H7.85ZM16.25 0.75C19.1495 0.75 21.5 3.10051 21.5 6C21.5 8.82324 19.2716 11.1259 16.4777 11.2452L16.25 11.25H14.15C13.5701 11.25 13.1 10.7799 13.1 10.2C13.1 9.66156 13.5053 9.21772 14.0276 9.15703L14.15 9.15H16.25C17.9897 9.15 19.4 7.73974 19.4 6C19.4 4.32241 18.0887 2.95116 16.4351 2.85534L16.25 2.85H14.15C13.5701 2.85 13.1 2.37989 13.1 1.8C13.1 1.26152 13.5053 0.817715 14.0276 0.757067L14.15 0.75H16.25ZM5.75 4.95H16.25C16.8299 4.95 17.3 5.42008 17.3 6C17.3 6.53844 16.8947 6.98228 16.3724 7.04297L16.25 7.05H5.75C5.17011 7.05 4.7 6.57991 4.7 6C4.7 5.46156 5.10534 5.01772 5.62755 4.95703L5.75 4.95H16.25H5.75Z" />
</svg>
